# xmcd CD database file
#
# Track frame offsets:
#	187
#	21904
#	38469
#	59202
#	74259
#	95274
#	110524
#	126024
#	140327
#	154382
#	169577
#	187734
#	214092
#	235914
#	252687
#	269257
#	286052
#	305537
#	324382
#
# Disc length: 4587 seconds
#
# Revision: 0
# Processed by: cddbd v1.5.1PL0 Copyright (c) Steve Scherf et al.
# Submitted via: CDex 1.51
#
DISCID=1111e913
DTITLE=Ben Webster - Ben Webster with Strings Disc 2
DYEAR=1975
DGENRE=Jazz
TTITLE0=Some Other Spring
TTITLE1=When Your Lover Has Gone
TTITLE2=Stars Fell On Alabama
TTITLE3=Under A Blanket Of Blue
TTITLE4=Stars Fell On Alabama (Alt Take)
TTITLE5=Under A Blaket Of Blue (Alt Take)
TTITLE6=My Funny Valentine
TTITLE7=You're Mine, You
TTITLE8=Sophisticated Lady
TTITLE9=Love's Away
TTITLE10=Almost Like Being Love
TTITLE11=A Ghost Of A Chance
TTITLE12=Take The A Train
TTITLE13=We're In Love Again
TTITLE14=Chalmeu
TTITLE15=Moonlight On The Ganges
TTITLE16=It Had To Be You
TTITLE17=My Fantasy
TTITLE18=I Got It Bad
EXTD=YEAR: 1975
EXTT0=
EXTT1=
EXTT2=
EXTT3=
EXTT4=
EXTT5=
EXTT6=
EXTT7=
EXTT8=
EXTT9=
EXTT10=
EXTT11=
EXTT12=
EXTT13=
EXTT14=
EXTT15=
EXTT16=
EXTT17=
EXTT18=
PLAYORDER=
